<?xml version="1.0" encoding="UTF-8"?>
<!DOCTYPE svg PUBLIC "-//W3C//DTD SVG 1.1//EN" "http://www.w3.org/Graphics/SVG/1.1/DTD/svg11.dtd">
<svg xmlns="http://www.w3.org/2000/svg" version="1.1" width="190px" height="40px" style="shape-rendering:geometricPrecision; text-rendering:geometricPrecision; image-rendering:optimizeQuality; fill-rule:evenodd; clip-rule:evenodd" xmlns:xlink="http://www.w3.org/1999/xlink">
<g><path style="opacity:1" fill="#fee761" d="M -0.5,-0.5 C 2.83333,-0.5 6.16667,-0.5 9.5,-0.5C 9.5,6.16667 9.5,12.8333 9.5,19.5C 6.16667,19.5 2.83333,19.5 -0.5,19.5C -0.5,12.8333 -0.5,6.16667 -0.5,-0.5 Z"/></g>
<g><path style="opacity:1" fill="#fee761" d="M 19.5,-0.5 C 22.8333,-0.5 26.1667,-0.5 29.5,-0.5C 29.5,12.8333 29.5,26.1667 29.5,39.5C 22.8333,39.5 16.1667,39.5 9.5,39.5C 9.5,36.1667 9.5,32.8333 9.5,29.5C 12.8333,29.5 16.1667,29.5 19.5,29.5C 19.5,26.1667 19.5,22.8333 19.5,19.5C 19.5,12.8333 19.5,6.16667 19.5,-0.5 Z"/></g>
<g><path style="opacity:1" fill="#fefffe" d="M 49.5,-0.5 C 56.1667,-0.5 62.8333,-0.5 69.5,-0.5C 69.5,2.83333 69.5,6.16667 69.5,9.5C 62.8333,9.5 56.1667,9.5 49.5,9.5C 49.5,6.16667 49.5,2.83333 49.5,-0.5 Z"/></g>
<g><path style="opacity:1" fill="#fefffe" d="M 49.5,9.5 C 49.5,16.1667 49.5,22.8333 49.5,29.5C 46.1667,29.5 42.8333,29.5 39.5,29.5C 39.5,22.8333 39.5,16.1667 39.5,9.5C 42.8333,9.5 46.1667,9.5 49.5,9.5 Z"/></g>
<g><path style="opacity:1" fill="#fefffe" d="M 99.5,19.5 C 96.1667,19.5 92.8333,19.5 89.5,19.5C 89.5,16.1667 89.5,12.8333 89.5,9.5C 92.8333,9.5 96.1667,9.5 99.5,9.5C 99.5,12.8333 99.5,16.1667 99.5,19.5 Z"/></g>
<g><path style="opacity:1" fill="#fefffe" d="M 139.5,19.5 C 136.167,19.5 132.833,19.5 129.5,19.5C 129.5,16.1667 129.5,12.8333 129.5,9.5C 132.833,9.5 136.167,9.5 139.5,9.5C 139.5,12.8333 139.5,16.1667 139.5,19.5 Z"/></g>
<g><path style="opacity:1" fill="#fefffe" d="M 179.5,19.5 C 176.167,19.5 172.833,19.5 169.5,19.5C 169.5,16.1667 169.5,12.8333 169.5,9.5C 172.833,9.5 176.167,9.5 179.5,9.5C 179.5,12.8333 179.5,16.1667 179.5,19.5 Z"/></g>
<g><path style="opacity:1" fill="#fa922a" d="M -0.5,19.5 C 2.83333,19.5 6.16667,19.5 9.5,19.5C 12.8333,19.5 16.1667,19.5 19.5,19.5C 19.5,22.8333 19.5,26.1667 19.5,29.5C 16.1667,29.5 12.8333,29.5 9.5,29.5C 9.5,32.8333 9.5,36.1667 9.5,39.5C 6.16667,39.5 2.83333,39.5 -0.5,39.5C -0.5,32.8333 -0.5,26.1667 -0.5,19.5 Z"/></g>
<g><path style="opacity:1" fill="#fefffe" d="M 69.5,39.5 C 62.8333,39.5 56.1667,39.5 49.5,39.5C 49.5,36.1667 49.5,32.8333 49.5,29.5C 52.8333,29.5 56.1667,29.5 59.5,29.5C 59.5,26.1667 59.5,22.8333 59.5,19.5C 62.8333,19.5 66.1667,19.5 69.5,19.5C 69.5,26.1667 69.5,32.8333 69.5,39.5 Z"/></g>
<g><path style="opacity:1" fill="#fefffe" d="M 89.5,19.5 C 89.5,26.1667 89.5,32.8333 89.5,39.5C 86.1667,39.5 82.8333,39.5 79.5,39.5C 79.5,32.8333 79.5,26.1667 79.5,19.5C 82.8333,19.5 86.1667,19.5 89.5,19.5 Z"/></g>
<g><path style="opacity:1" fill="#fefffe" d="M 99.5,19.5 C 102.833,19.5 106.167,19.5 109.5,19.5C 109.5,26.1667 109.5,32.8333 109.5,39.5C 106.167,39.5 102.833,39.5 99.5,39.5C 99.5,32.8333 99.5,26.1667 99.5,19.5 Z"/></g>
<g><path style="opacity:1" fill="#fefffe" d="M 129.5,19.5 C 129.5,22.8333 129.5,26.1667 129.5,29.5C 126.167,29.5 122.833,29.5 119.5,29.5C 119.5,26.1667 119.5,22.8333 119.5,19.5C 122.833,19.5 126.167,19.5 129.5,19.5 Z"/></g>
<g><path style="opacity:1" fill="#fefffe" d="M 139.5,19.5 C 142.833,19.5 146.167,19.5 149.5,19.5C 149.5,26.1667 149.5,32.8333 149.5,39.5C 142.833,39.5 136.167,39.5 129.5,39.5C 129.5,36.1667 129.5,32.8333 129.5,29.5C 132.833,29.5 136.167,29.5 139.5,29.5C 139.5,26.1667 139.5,22.8333 139.5,19.5 Z"/></g>
<g><path style="opacity:1" fill="#fefffe" d="M 169.5,19.5 C 169.5,26.1667 169.5,32.8333 169.5,39.5C 166.167,39.5 162.833,39.5 159.5,39.5C 159.5,32.8333 159.5,26.1667 159.5,19.5C 162.833,19.5 166.167,19.5 169.5,19.5 Z"/></g>
<g><path style="opacity:1" fill="#fefffe" d="M 179.5,19.5 C 182.833,19.5 186.167,19.5 189.5,19.5C 189.5,22.8333 189.5,26.1667 189.5,29.5C 186.167,29.5 182.833,29.5 179.5,29.5C 179.5,26.1667 179.5,22.8333 179.5,19.5 Z"/></g>
</svg>
