<svg width="320" height="320" viewBox="0 0 320 320" xmlns="http://www.w3.org/2000/svg" shape-rendering="crispEdges"><rect width="100%" height="100%" fill="#d5d7e1" /><rect width="140" height="10" x="90" y="210" fill="#a84087" /><rect width="140" height="10" x="90" y="220" fill="#a84087" /><rect width="140" height="10" x="90" y="230" fill="#a84087" /><rect width="10" height="10" x="260" y="230" fill="#ffe761" /><rect width="10" height="10" x="280" y="230" fill="#ffe761" /><rect width="140" height="10" x="90" y="240" fill="#a84087" /><rect width="10" height="10" x="260" y="240" fill="#ffe761" /><rect width="10" height="10" x="280" y="240" fill="#ffe761" /><rect width="50" height="10" x="40" y="250" fill="#804229" /><rect width="20" height="10" x="90" y="250" fill="#a84087" /><rect width="50" height="10" x="110" y="250" fill="#804229" /><rect width="70" height="10" x="160" y="250" fill="#a84087" /><rect width="20" height="10" x="260" y="250" fill="#fc922c" /><rect width="10" height="10" x="280" y="250" fill="#ffe761" /><rect width="20" height="10" x="30" y="260" fill="#804229" /><rect width="30" height="10" x="50" y="260" fill="#fcffde" /><rect width="10" height="10" x="80" y="260" fill="#804229" /><rect width="20" height="10" x="90" y="260" fill="#a84087" /><rect width="10" height="10" x="110" y="260" fill="#804229" /><rect width="30" height="10" x="120" y="260" fill="#fcffde" /><rect width="20" height="10" x="150" y="260" fill="#804229" /><rect width="60" height="10" x="170" y="260" fill="#a84087" /><rect width="10" height="10" x="260" y="260" fill="#fc922c" /><rect width="20" height="10" x="270" y="260" fill="#ffe761" /><rect width="30" height="10" x="30" y="270" fill="#804229" /><rect width="10" height="10" x="60" y="270" fill="#b5c3c7" /><rect width="20" height="10" x="70" y="270" fill="#804229" /><rect width="20" height="10" x="90" y="270" fill="#a84087" /><rect width="20" height="10" x="110" y="270" fill="#804229" /><rect width="10" height="10" x="130" y="270" fill="#b5c3c7" /><rect width="30" height="10" x="140" y="270" fill="#804229" /><rect width="60" height="10" x="170" y="270" fill="#a84087" /><rect width="20" height="10" x="270" y="270" fill="#a84087" /><rect width="30" height="10" x="30" y="280" fill="#804229" /><rect width="10" height="10" x="60" y="280" fill="#b5c3c7" /><rect width="20" height="10" x="70" y="280" fill="#804229" /><rect width="20" height="10" x="90" y="280" fill="#a84087" /><rect width="20" height="10" x="110" y="280" fill="#804229" /><rect width="10" height="10" x="130" y="280" fill="#b5c3c7" /><rect width="30" height="10" x="140" y="280" fill="#804229" /><rect width="120" height="10" x="170" y="280" fill="#a84087" /><rect width="20" height="10" x="30" y="290" fill="#804229" /><rect width="30" height="10" x="50" y="290" fill="#fcffde" /><rect width="10" height="10" x="80" y="290" fill="#804229" /><rect width="20" height="10" x="90" y="290" fill="#a84087" /><rect width="10" height="10" x="110" y="290" fill="#804229" /><rect width="30" height="10" x="120" y="290" fill="#fcffde" /><rect width="20" height="10" x="150" y="290" fill="#804229" /><rect width="120" height="10" x="170" y="290" fill="#a84087" /><rect width="50" height="10" x="40" y="300" fill="#804229" /><rect width="20" height="10" x="90" y="300" fill="#a84087" /><rect width="50" height="10" x="110" y="300" fill="#804229" /><rect width="60" height="10" x="160" y="300" fill="#a84087" /><rect width="20" height="10" x="90" y="310" fill="#a84087" /><rect width="100" height="10" x="120" y="310" fill="#a84087" /><rect width="20" height="10" x="180" y="230" fill="#ffffff" /><rect width="10" height="10" x="180" y="240" fill="#ffffff" /><rect width="10" height="10" x="200" y="240" fill="#ffffff" /><rect width="10" height="10" x="200" y="250" fill="#ffffff" /><rect width="20" height="10" x="110" y="50" fill="#f71248" /><rect width="10" height="10" x="130" y="50" fill="#f78a18" /><rect width="40" height="10" x="140" y="50" fill="#f71248" /><rect width="10" height="10" x="180" y="50" fill="#f78a18" /><rect width="20" height="10" x="190" y="50" fill="#f71248" /><rect width="30" height="10" x="100" y="60" fill="#f71248" /><rect width="10" height="10" x="130" y="60" fill="#f78a18" /><rect width="40" height="10" x="140" y="60" fill="#f71248" /><rect width="10" height="10" x="180" y="60" fill="#f78a18" /><rect width="30" height="10" x="190" y="60" fill="#f71248" /><rect width="30" height="10" x="90" y="70" fill="#f71248" /><rect width="10" height="10" x="120" y="70" fill="#f78a18" /><rect width="60" height="10" x="130" y="70" fill="#f71248" /><rect width="10" height="10" x="190" y="70" fill="#f78a18" /><rect width="30" height="10" x="200" y="70" fill="#f71248" /><rect width="40" height="10" x="80" y="80" fill="#f71248" /><rect width="10" height="10" x="120" y="80" fill="#f78a18" /><rect width="60" height="10" x="130" y="80" fill="#f71248" /><rect width="10" height="10" x="190" y="80" fill="#f78a18" /><rect width="40" height="10" x="200" y="80" fill="#f71248" /><rect width="40" height="10" x="70" y="90" fill="#f71248" /><rect width="10" height="10" x="110" y="90" fill="#ffffff" /><rect width="80" height="10" x="120" y="90" fill="#f71248" /><rect width="10" height="10" x="200" y="90" fill="#f78a18" /><rect width="40" height="10" x="210" y="90" fill="#f71248" /><rect width="20" height="10" x="60" y="100" fill="#f78a18" /><rect width="10" height="10" x="80" y="100" fill="#ffffff" /><rect width="10" height="10" x="90" y="100" fill="#f78a18" /><rect width="30" height="10" x="100" y="100" fill="#ffffff" /><rect width="10" height="10" x="130" y="100" fill="#f78a18" /><rect width="10" height="10" x="140" y="100" fill="#ffffff" /><rect width="110" height="10" x="150" y="100" fill="#f78a18" /><rect width="50" height="10" x="60" y="110" fill="#f71248" /><rect width="10" height="10" x="110" y="110" fill="#ffffff" /><rect width="80" height="10" x="120" y="110" fill="#f71248" /><rect width="10" height="10" x="200" y="110" fill="#f78a18" /><rect width="50" height="10" x="210" y="110" fill="#f71248" /><rect width="50" height="10" x="60" y="120" fill="#f71248" /><rect width="10" height="10" x="110" y="120" fill="#f78a18" /><rect width="80" height="10" x="120" y="120" fill="#f71248" /><rect width="10" height="10" x="200" y="120" fill="#f78a18" /><rect width="50" height="10" x="210" y="120" fill="#f71248" /><rect width="50" height="10" x="60" y="130" fill="#f71248" /><rect width="10" height="10" x="110" y="130" fill="#f78a18" /><rect width="80" height="10" x="120" y="130" fill="#f71248" /><rect width="10" height="10" x="200" y="130" fill="#f78a18" /><rect width="50" height="10" x="210" y="130" fill="#f71248" /><rect width="50" height="10" x="60" y="140" fill="#f71248" /><rect width="10" height="10" x="110" y="140" fill="#f78a18" /><rect width="80" height="10" x="120" y="140" fill="#f71248" /><rect width="10" height="10" x="200" y="140" fill="#f78a18" /><rect width="50" height="10" x="210" y="140" fill="#f71248" /><rect width="200" height="10" x="60" y="150" fill="#f78a18" /><rect width="50" height="10" x="70" y="160" fill="#f71248" /><rect width="10" height="10" x="120" y="160" fill="#f78a18" /><rect width="60" height="10" x="130" y="160" fill="#f71248" /><rect width="10" height="10" x="190" y="160" fill="#f78a18" /><rect width="50" height="10" x="200" y="160" fill="#f71248" /><rect width="40" height="10" x="80" y="170" fill="#f71248" /><rect width="10" height="10" x="120" y="170" fill="#f78a18" /><rect width="60" height="10" x="130" y="170" fill="#f71248" /><rect width="10" height="10" x="190" y="170" fill="#f78a18" /><rect width="40" height="10" x="200" y="170" fill="#f71248" /><rect width="40" height="10" x="90" y="180" fill="#f71248" /><rect width="10" height="10" x="130" y="180" fill="#f78a18" /><rect width="40" height="10" x="140" y="180" fill="#f71248" /><rect width="10" height="10" x="180" y="180" fill="#f78a18" /><rect width="40" height="10" x="190" y="180" fill="#f71248" /><rect width="30" height="10" x="100" y="190" fill="#f71248" /><rect width="10" height="10" x="130" y="190" fill="#f78a18" /><rect width="40" height="10" x="140" y="190" fill="#f71248" /><rect width="10" height="10" x="180" y="190" fill="#f78a18" /><rect width="30" height="10" x="190" y="190" fill="#f71248" /><rect width="20" height="10" x="110" y="200" fill="#f71248" /><rect width="10" height="10" x="130" y="200" fill="#f78a18" /><rect width="40" height="10" x="140" y="200" fill="#f71248" /><rect width="10" height="10" x="180" y="200" fill="#f78a18" /><rect width="20" height="10" x="190" y="200" fill="#f71248" /><rect width="20" height="10" x="120" y="210" fill="#f71248" /><rect width="10" height="10" x="140" y="210" fill="#f78a18" /><rect width="20" height="10" x="150" y="210" fill="#f71248" /><rect width="10" height="10" x="170" y="210" fill="#f78a18" /><rect width="20" height="10" x="180" y="210" fill="#f71248" /><rect width="10" height="10" x="130" y="220" fill="#f71248" /><rect width="10" height="10" x="140" y="220" fill="#f78a18" /><rect width="20" height="10" x="150" y="220" fill="#f71248" /><rect width="10" height="10" x="170" y="220" fill="#f78a18" /><rect width="10" height="10" x="180" y="220" fill="#f71248" /><rect width="10" height="10" x="140" y="230" fill="#f78a18" /><rect width="20" height="10" x="150" y="230" fill="#f71248" /><rect width="10" height="10" x="170" y="230" fill="#f78a18" /><rect width="20" height="10" x="150" y="240" fill="#f71248" /><rect width="40" height="10" x="110" y="110" fill="#ff8336" /><rect width="40" height="10" x="180" y="110" fill="#ff8336" /><rect width="10" height="10" x="100" y="120" fill="#ff8336" /><rect width="20" height="10" x="110" y="120" fill="#ffffff" /><rect width="20" height="10" x="130" y="120" fill="#000000" /><rect width="10" height="10" x="150" y="120" fill="#ff8336" /><rect width="10" height="10" x="170" y="120" fill="#ff8336" /><rect width="20" height="10" x="180" y="120" fill="#ffffff" /><rect width="20" height="10" x="200" y="120" fill="#000000" /><rect width="10" height="10" x="220" y="120" fill="#ff8336" /><rect width="40" height="10" x="70" y="130" fill="#ff8336" /><rect width="20" height="10" x="110" y="130" fill="#ffffff" /><rect width="20" height="10" x="130" y="130" fill="#000000" /><rect width="10" height="10" x="150" y="130" fill="#ff8336" /><rect width="10" height="10" x="170" y="130" fill="#ff8336" /><rect width="20" height="10" x="180" y="130" fill="#ffffff" /><rect width="20" height="10" x="200" y="130" fill="#000000" /><rect width="10" height="10" x="220" y="130" fill="#ff8336" /><rect width="10" height="10" x="70" y="140" fill="#ff8336" /><rect width="10" height="10" x="100" y="140" fill="#ff8336" /><rect width="20" height="10" x="110" y="140" fill="#ffffff" /><rect width="20" height="10" x="130" y="140" fill="#000000" /><rect width="20" height="10" x="150" y="140" fill="#eb3528" /><rect width="10" height="10" x="170" y="140" fill="#ff8336" /><rect width="20" height="10" x="180" y="140" fill="#ffffff" /><rect width="20" height="10" x="200" y="140" fill="#000000" /><rect width="10" height="10" x="220" y="140" fill="#ff8336" /><rect width="10" height="10" x="70" y="150" fill="#ff8336" /><rect width="10" height="10" x="100" y="150" fill="#ff8336" /><rect width="20" height="10" x="110" y="150" fill="#ffffff" /><rect width="20" height="10" x="130" y="150" fill="#000000" /><rect width="10" height="10" x="150" y="150" fill="#eb3528" /><rect width="20" height="10" x="160" y="150" fill="#ff8336" /><rect width="20" height="10" x="180" y="150" fill="#ffffff" /><rect width="20" height="10" x="200" y="150" fill="#000000" /><rect width="10" height="10" x="220" y="150" fill="#ff8336" /><rect width="40" height="10" x="110" y="160" fill="#ff8336" /><rect width="40" height="10" x="180" y="160" fill="#ff8336" /></svg>