<?xml version="1.0" encoding="UTF-8" standalone="no"?>
<!DOCTYPE svg PUBLIC "-//W3C//DTD SVG 1.1//EN" "http://www.w3.org/Graphics/SVG/1.1/DTD/svg11.dtd">
<svg width="100%" height="100%" viewBox="0 0 24 24" version="1.1" xmlns="http://www.w3.org/2000/svg" xmlns:xlink="http://www.w3.org/1999/xlink" xml:space="preserve" xmlns:serif="http://www.serif.com/" style="fill-rule:evenodd;clip-rule:evenodd;stroke-linejoin:round;stroke-miterlimit:2;">
    <path d="M15,15L19,15L19,14L20,14L20,10L19,10L19,9L15,9L15,10L14,10L14,12L13,12L13,10L12,10L12,9L8,9L8,10L7,10L7,11L4,11L4,14L5,14L5,12L7,12L7,14L8,14L8,10L10,10L10,14L8,14L8,15L12,15L12,14L15,14L15,10L17,10L17,14L15,14L15,15Z" style="fill:white;"/>
</svg>
