<svg version="1.2" xmlns="http://www.w3.org/2000/svg" viewBox="0 0 448 448" width="448" height="448">
	<path fill="currentColor" d="m256 32c0-17.7 14.3-32 32-32h127.1c5.2 0 9.4 0.9 13.1 2.4 2.9 1.6 7.3 3.9 10.4 6.9 0 0.1 0 0.1 0.1 0.1 6.2 6.3 8.4 14.4 9.3 22.5q0 0.1 0 0.1v128c0 17.7-14.3 32-32 32-17.7 0-32-14.3-32-32v-50.7l-169.4 169.3c-12.5 12.5-32.7 12.5-45.2 0-12.5-12.5-12.5-32.7 0-45.2l169.3-169.4h-50.7c-17.7 0-32-14.3-32-32zm-256 64c0-35.3 28.7-64 64-64h96c17.7 0 32 14.3 32 32 0 17.7-14.3 32-32 32h-96v288h288v-96c0-17.7 14.3-32 32-32 17.7 0 32 14.3 32 32v96c0 35.3-28.7 64-64 64h-288c-35.3 0-64-28.7-64-64z"/>
</svg>
