<svg width="24" height="24" viewBox="0 0 24 24" fill="none" xmlns="http://www.w3.org/2000/svg">
<rect x="5" y="17" width="1" height="1" fill="white"/>
<rect x="5" y="14" width="1" height="1" fill="white"/>
<rect x="5" y="13" width="1" height="1" fill="white"/>
<rect x="5" y="10" width="1" height="1" fill="white"/>
<rect x="9" y="10" width="1" height="1" fill="white"/>
<rect x="9" y="13" width="1" height="1" fill="white"/>
<rect x="9" y="14" width="1" height="1" fill="white"/>
<rect x="9" y="17" width="1" height="1" fill="white"/>
<rect x="11" y="11" width="1" height="1" fill="white"/>
<rect x="11" y="12" width="1" height="1" fill="white"/>
<rect x="11" y="15" width="1" height="1" fill="white"/>
<rect x="11" y="16" width="1" height="1" fill="white"/>
<rect x="13" y="10" width="1" height="1" fill="white"/>
<rect x="13" y="13" width="1" height="1" fill="white"/>
<rect x="13" y="14" width="1" height="1" fill="white"/>
<rect x="13" y="17" width="1" height="1" fill="white"/>
<rect x="15" y="11" width="1" height="1" fill="white"/>
<rect x="15" y="12" width="1" height="1" fill="white"/>
<rect x="15" y="15" width="1" height="1" fill="white"/>
<rect x="15" y="16" width="1" height="1" fill="white"/>
<rect x="17" y="10" width="1" height="1" fill="white"/>
<rect x="17" y="13" width="1" height="1" fill="white"/>
<rect x="17" y="14" width="1" height="1" fill="white"/>
<rect x="17" y="17" width="1" height="1" fill="white"/>
<rect x="5" y="9" width="1" height="1" fill="white"/>
<rect x="9" y="9" width="1" height="1" fill="white"/>
<rect x="13" y="9" width="1" height="1" fill="white"/>
<rect x="17" y="9" width="1" height="1" fill="white"/>
<rect x="7" y="8" width="1" height="1" fill="white"/>
<rect x="11" y="8" width="1" height="1" fill="white"/>
<rect x="15" y="8" width="1" height="1" fill="white"/>
<rect x="7" y="7" width="1" height="1" fill="white"/>
<rect x="11" y="7" width="1" height="1" fill="white"/>
<rect x="15" y="7" width="1" height="1" fill="white"/>
<rect x="6" y="16" width="1" height="1" fill="white"/>
<rect x="6" y="15" width="1" height="1" fill="white"/>
<rect x="6" y="12" width="1" height="1" fill="white"/>
<rect x="6" y="11" width="1" height="1" fill="white"/>
<rect x="8" y="10" width="1" height="1" fill="white"/>
<rect x="8" y="13" width="1" height="1" fill="white"/>
<rect x="8" y="14" width="1" height="1" fill="white"/>
<rect x="8" y="17" width="1" height="1" fill="white"/>
<rect x="10" y="11" width="1" height="1" fill="white"/>
<rect x="10" y="12" width="1" height="1" fill="white"/>
<rect x="10" y="15" width="1" height="1" fill="white"/>
<rect x="10" y="16" width="1" height="1" fill="white"/>
<rect x="12" y="10" width="1" height="1" fill="white"/>
<rect x="12" y="13" width="1" height="1" fill="white"/>
<rect x="12" y="14" width="1" height="1" fill="white"/>
<rect x="12" y="17" width="1" height="1" fill="white"/>
<rect x="14" y="11" width="1" height="1" fill="white"/>
<rect x="14" y="12" width="1" height="1" fill="white"/>
<rect x="14" y="15" width="1" height="1" fill="white"/>
<rect x="14" y="16" width="1" height="1" fill="white"/>
<rect x="16" y="10" width="1" height="1" fill="white"/>
<rect x="16" y="13" width="1" height="1" fill="white"/>
<rect x="16" y="14" width="1" height="1" fill="white"/>
<rect x="16" y="17" width="1" height="1" fill="white"/>
<rect x="18" y="11" width="1" height="1" fill="white"/>
<rect x="18" y="12" width="1" height="1" fill="white"/>
<rect x="18" y="15" width="1" height="1" fill="white"/>
<rect x="18" y="16" width="1" height="1" fill="white"/>
<rect x="8" y="9" width="1" height="1" fill="white"/>
<rect x="12" y="9" width="1" height="1" fill="white"/>
<rect x="16" y="9" width="1" height="1" fill="white"/>
<rect x="6" y="8" width="1" height="1" fill="white"/>
<rect x="10" y="8" width="1" height="1" fill="white"/>
<rect x="14" y="8" width="1" height="1" fill="white"/>
<rect x="18" y="8" width="1" height="1" fill="white"/>
<rect x="6" y="7" width="1" height="1" fill="white"/>
<rect x="10" y="7" width="1" height="1" fill="white"/>
<rect x="14" y="7" width="1" height="1" fill="white"/>
<rect x="18" y="7" width="1" height="1" fill="white"/>
</svg>
