<svg version="1.1" id="Layer_1" xmlns="http://www.w3.org/2000/svg" xmlns:xlink="http://www.w3.org/1999/xlink" x="0px" y="0px" viewBox="0 0 100 100" style="enable-background:new 0 0 100 100;" xml:space="preserve">
<style type="text/css">
	.st0{display:none;fill:#231F20;}
	.st1{display:none;}
	.st2{display:inline;fill:#231F20;}
	.st3{fill:#231F20;}
</style>
<path class="st0" d="M96.12,28.35H60.55c-2.14,0-3.87,1.73-3.87,3.87v13.92H43.31V32.22c0-2.14-1.73-3.87-3.87-3.87H3.88  c-2.14,0-3.87,1.73-3.87,3.87v35.57c0,2.14,1.73,3.87,3.87,3.87h35.57c2.14,0,3.87-1.73,3.87-3.87V53.87h13.38v13.92  c0,2.14,1.73,3.87,3.87,3.87h35.57c2.14,0,3.87-1.73,3.87-3.87V32.22C99.99,30.08,98.26,28.35,96.12,28.35z M35.58,63.94H7.74V36.11  h27.84V63.94z M92.26,63.94H64.42V36.11h27.84V63.94z"/>
<g class="st1">
	<path class="st2" d="M96.19,0H3.81C1.7,0,0,1.7,0,3.81v92.37C0,98.3,1.7,100,3.81,100h92.37c2.11,0,3.81-1.7,3.81-3.81V3.81   C100,1.73,98.3,0,96.19,0z M92.37,92.37H7.63V7.63h84.74V92.37z"/>
	<path class="st2" d="M65.44,65.52H34.59c-2.11,0-3.81,1.7-3.81,3.81s1.7,3.81,3.81,3.81h30.85c2.11,0,3.81-1.7,3.81-3.81   S67.53,65.52,65.44,65.52z"/>
	<path class="st2" d="M32.55,48.02c2.11,0,3.81-1.7,3.81-3.81v-6.73c0-2.11-1.7-3.81-3.81-3.81s-3.81,1.7-3.81,3.81v6.73   C28.74,46.31,30.44,48.02,32.55,48.02z"/>
	<path class="st2" d="M67.45,48.02c2.11,0,3.81-1.7,3.81-3.81v-6.73c0-2.11-1.7-3.81-3.81-3.81s-3.81,1.7-3.81,3.81v6.73   C63.66,46.31,65.36,48.02,67.45,48.02z"/>
</g>
<path class="st3" d="M100,14.26c0-5.11-1.39-8.79-4.28-11.21c-5.26-4.41-13.66-3.17-24.33-1.59C64.95,2.42,57.65,3.51,50,3.51  S35.03,2.42,28.61,1.47C17.96-0.12,9.54-1.38,4.28,3.05C1.39,5.47,0,9.13,0,14.26c0,16.12,13.94,29.85,33.32,34.99  c-7.24,5.09-11.96,13.38-11.96,22.72c0,15.44,12.86,28.02,28.66,28.02s28.66-12.57,28.66-28.02c0-9.35-4.74-17.64-11.96-22.72  C86.06,44.12,100,30.39,100,14.26z M71.03,71.96c0,11.34-9.43,20.56-21.03,20.56S28.97,83.3,28.97,71.96S38.4,51.4,50,51.4  S71.03,60.65,71.03,71.96z M50,43.97c-23.35,0-42.37-13.33-42.37-29.7c0-2.77,0.54-4.66,1.62-5.54c1.08-0.91,3.02-1.23,5.46-1.23  c3.48,0,8.04,0.68,12.73,1.39c6.7,1.01,14.3,2.12,22.55,2.12s15.85-1.13,22.55-2.12c8.02-1.18,15.59-2.32,18.2-0.13  c1.08,0.91,1.62,2.77,1.62,5.54C92.37,30.64,73.35,43.97,50,43.97z"/>
<path class="st0" d="M96.13,14.86H75.18H24.82H3.87C1.73,14.86,0,16.59,0,18.72v43.53c0,2.14,1.73,3.87,3.87,3.87  s3.87-1.73,3.87-3.87V22.59h13.22v58.69c0,2.14,1.73,3.87,3.87,3.87h50.36c2.14,0,3.87-1.73,3.87-3.87V22.59h13.22v39.67  c0,2.14,1.73,3.87,3.87,3.87c2.14,0,3.87-1.73,3.87-3.87V18.72C100,16.59,98.27,14.86,96.13,14.86z M71.31,77.41H28.69V22.59h42.63  V77.41z"/>
</svg>
